<svg width="100" height="100" viewBox="0 0 100 100" fill="none" xmlns="http://www.w3.org/2000/svg">
<rect x="1" y="1" width="98" height="98" rx="26" fill="#FCF2E4"/>
<rect x="1" y="1" width="98" height="98" rx="26" stroke="url(#paint0_linear_13_132)" stroke-width="2"/>
<g clip-path="url(#clip0_13_132)">
<path d="M73.3174 39.4069C73.1974 39.2806 73.0699 39.1543 72.9424 39.0354C72.8149 38.9166 72.6949 38.7829 72.5674 38.664C72.4399 38.5451 72.3199 38.4114 72.1924 38.2926C72.0649 38.1737 71.9449 38.04 71.8174 37.9211C71.6899 37.8023 71.5699 37.6686 71.4424 37.5497C71.3149 37.4309 71.1949 37.2971 71.0674 37.1783C70.9399 37.0594 70.8199 36.9257 70.6924 36.8069C74.4126 40.4281 76.5437 45.3544 76.6249 50.52C76.6249 62.8291 64.0099 72.8429 48.4999 72.8429C39.8149 72.8429 32.0449 69.7006 26.8774 64.7754L27.2524 65.1469L27.6274 65.5183L28.0024 65.8897L28.3774 66.2611L28.7524 66.6326L29.1274 67.004L29.5024 67.3754C34.6624 72.5086 42.6049 75.8143 51.4999 75.8143C67.0099 75.8143 79.6249 65.8006 79.6249 53.5286C79.6249 48.284 77.3449 43.3143 73.3174 39.4069Z" fill="black"/>
<path d="M74.75 50.52C74.75 61.8189 62.9975 70.9783 48.5 70.9783C34.0025 70.9783 22.25 61.8189 22.25 50.52C22.25 43.5149 26.75 37.3269 33.665 33.6571C40.58 29.9874 44.885 26.2286 48.5 26.2286C52.115 26.2286 55.205 29.2966 63.335 33.6571C70.25 37.3269 74.75 43.5149 74.75 50.52Z" fill="#FBF0DF"/>
<path d="M74.75 50.52C74.7464 49.0685 74.5446 47.6242 74.15 46.2263C72.1025 70.9634 41.6375 72.152 29.66 64.7531C35.0443 68.8867 41.6886 71.0821 48.5 70.9783C62.975 70.9783 74.75 61.804 74.75 50.52Z" fill="#F6DECE"/>
<path d="M38.3975 32.2977C41.75 30.3069 46.205 26.5703 50.585 26.5629C49.9112 26.3471 49.2081 26.2344 48.5 26.2286C46.685 26.2286 44.75 27.1571 42.3125 28.5537C41.465 29.044 40.5875 29.5863 39.6575 30.1509C37.91 31.2206 35.9075 32.4314 33.6575 33.6423C26.5175 37.468 22.25 43.7749 22.25 50.52C22.25 50.8171 22.25 51.1143 22.25 51.404C26.795 35.4994 35.0525 34.2886 38.3975 32.2977Z" fill="#FFFEFC"/>
<path fill-rule="evenodd" clip-rule="evenodd" d="M46.34 28.108C46.3505 29.8621 45.9787 31.5977 45.2499 33.1964C44.5212 34.7951 43.4527 36.2192 42.1175 37.3714C41.9075 37.5571 42.0725 37.9137 42.3425 37.8097C44.87 36.8366 48.2825 33.9246 46.8425 28.0486C46.7825 27.7143 46.34 27.8034 46.34 28.108ZM48.0425 28.108C48.9602 29.5911 49.5432 31.2531 49.7516 32.9803C49.96 34.7074 49.7889 36.4588 49.25 38.1143C49.16 38.3743 49.4825 38.5971 49.6625 38.3817C51.305 36.3017 52.7375 32.1714 48.4475 27.7143C48.23 27.5211 47.8925 27.8183 48.0425 28.0783V28.108ZM50.1125 27.9817C51.5496 28.9894 52.7518 30.2907 53.638 31.7977C54.5243 33.3047 55.074 34.9824 55.25 36.7177C55.2424 36.7803 55.2594 36.8433 55.2974 36.8937C55.3355 36.9442 55.3917 36.9782 55.4544 36.9887C55.5171 36.9992 55.5815 36.9854 55.6342 36.9502C55.6869 36.9149 55.7239 36.861 55.7375 36.7994C56.4275 34.2069 56.0375 29.7869 50.36 27.4914C50.06 27.3726 49.865 27.7737 50.1125 27.952V27.9817ZM36.2675 35.7074C37.9769 35.2016 39.5597 34.3448 40.9126 33.1929C42.2656 32.041 43.3584 30.6197 44.12 29.0217C44.255 28.7543 44.6825 28.8583 44.615 29.1554C43.3175 35.0983 38.975 36.3389 36.275 36.1754C35.99 36.1829 35.9975 35.7891 36.2675 35.7074Z" fill="#CCBEA7"/>
<path d="M48.5 72.8429C32.99 72.8429 20.375 62.8291 20.375 50.52C20.375 43.0914 25.01 36.1606 32.7725 32.008C35.0225 30.8194 36.95 29.6234 38.6675 28.576C39.6125 27.9966 40.505 27.4543 41.3675 26.9491C44 25.404 46.25 24.3714 48.5 24.3714C50.75 24.3714 52.715 25.2629 55.175 26.704C55.925 27.1274 56.675 27.588 57.4775 28.0931C59.345 29.2371 61.4525 30.5297 64.2275 32.008C71.99 36.1606 76.625 43.084 76.625 50.52C76.625 62.8291 64.01 72.8429 48.5 72.8429ZM48.5 26.2286C46.685 26.2286 44.75 27.1571 42.3125 28.5537C41.465 29.044 40.5875 29.5863 39.6575 30.1509C37.91 31.2206 35.9075 32.4314 33.6575 33.6423C26.5175 37.468 22.25 43.7749 22.25 50.52C22.25 61.804 34.025 70.9857 48.5 70.9857C62.975 70.9857 74.75 61.804 74.75 50.52C74.75 43.7749 70.4825 37.468 63.335 33.6571C60.5 32.1714 58.2875 30.7749 56.495 29.6754C55.6775 29.1777 54.9275 28.7171 54.245 28.3086C51.9725 26.9714 50.315 26.2286 48.5 26.2286Z" fill="black"/>
<path d="M53.7876 55.9429C53.4506 57.3097 52.6837 58.535 51.5976 59.4417C50.7821 60.2246 49.7265 60.7161 48.5976 60.8383C47.4347 60.7354 46.342 60.2428 45.5001 59.4417C44.425 58.5307 43.6689 57.3058 43.3401 55.9429C43.3292 55.8619 43.3371 55.7796 43.3633 55.7022C43.3895 55.6248 43.4332 55.5544 43.4911 55.4963C43.549 55.4382 43.6196 55.394 43.6974 55.3671C43.7752 55.3402 43.8582 55.3314 43.9401 55.3411H53.1951C53.2763 55.3326 53.3584 55.3424 53.4353 55.3698C53.5122 55.3973 53.5817 55.4416 53.6388 55.4996C53.6958 55.5575 53.7388 55.6275 53.7646 55.7043C53.7904 55.781 53.7982 55.8626 53.7876 55.9429Z" fill="#B71422"/>
<path d="M45.5001 59.5011C46.3403 60.3027 47.429 60.7999 48.5901 60.9125C49.7484 60.7983 50.8343 60.3011 51.6726 59.5011C51.9407 59.2536 52.1913 58.988 52.4226 58.7063C51.9605 58.1871 51.3962 57.7671 50.7642 57.472C50.1322 57.1768 49.4459 57.0129 48.7476 56.9903C48.0003 57.0078 47.2686 57.2049 46.6154 57.5647C45.9621 57.9244 45.4069 58.436 44.9976 59.0554C45.1701 59.2114 45.3201 59.36 45.5001 59.5011Z" fill="#FF6164"/>
<path d="M45.6201 58.9143C45.992 58.4382 46.4679 58.0518 47.0122 57.7842C47.5565 57.5166 48.155 57.3747 48.7626 57.3691C49.8858 57.4019 50.9559 57.8498 51.7626 58.6246C51.9351 58.4388 52.1001 58.2457 52.2576 58.0525C51.3035 57.1525 50.0425 56.6407 48.7251 56.6188C48.0211 56.6248 47.3271 56.7852 46.693 57.0883C46.0589 57.3914 45.5004 57.8298 45.0576 58.372C45.2349 58.5628 45.4227 58.7438 45.6201 58.9143Z" fill="black"/>
<path d="M48.5675 61.284C47.3178 61.1755 46.1417 60.652 45.23 59.7983C44.0691 58.8257 43.2519 57.5114 42.8975 56.0468C42.8721 55.9165 42.8764 55.7821 42.9102 55.6536C42.9439 55.525 43.0062 55.4056 43.0925 55.304C43.1953 55.1811 43.3251 55.083 43.472 55.0174C43.6189 54.9517 43.779 54.9201 43.94 54.9251H53.195C53.3559 54.9218 53.5154 54.9541 53.6621 55.0196C53.8087 55.0851 53.9387 55.1823 54.0425 55.304C54.128 55.406 54.1893 55.5257 54.2217 55.6543C54.2542 55.7829 54.257 55.917 54.23 56.0468C53.8757 57.5114 53.0585 58.8257 51.8975 59.7983C50.9879 60.6505 49.8147 61.1739 48.5675 61.284ZM43.94 55.7868C43.82 55.7868 43.79 55.8388 43.7825 55.8537C44.0996 57.1237 44.8167 58.2608 45.83 59.1C46.571 59.823 47.5344 60.2805 48.5675 60.4C49.598 60.2819 50.5603 59.8301 51.305 59.1148C52.3152 58.2742 53.0295 57.1374 53.345 55.8686C53.3287 55.8448 53.306 55.826 53.2796 55.8142C53.2531 55.8024 53.2238 55.7981 53.195 55.8017L43.94 55.7868Z" fill="black"/>
<path d="M59.915 56.4034C62.3381 56.4034 64.3025 55.2593 64.3025 53.848C64.3025 52.4367 62.3381 51.2926 59.915 51.2926C57.4918 51.2926 55.5275 52.4367 55.5275 53.848C55.5275 55.2593 57.4918 56.4034 59.915 56.4034Z" fill="#FEBBD0"/>
<path d="M37.2125 56.4034C39.6356 56.4034 41.6 55.2593 41.6 53.848C41.6 52.4367 39.6356 51.2926 37.2125 51.2926C34.7893 51.2926 32.825 52.4367 32.825 53.848C32.825 55.2593 34.7893 56.4034 37.2125 56.4034Z" fill="#FEBBD0"/>
<path fill-rule="evenodd" clip-rule="evenodd" d="M39.2749 52.8228C40.0926 52.8243 40.8923 52.5855 41.5728 52.1366C42.2534 51.6878 42.7842 51.049 43.0982 50.3012C43.4121 49.5534 43.495 48.7302 43.3364 47.9357C43.1778 47.1413 42.7848 46.4112 42.2072 45.8381C41.6295 45.2649 40.8932 44.8743 40.0914 44.7158C39.2895 44.5572 38.4583 44.6378 37.7027 44.9474C36.9471 45.257 36.3013 45.7816 35.8469 46.4549C35.3925 47.1282 35.1499 47.9198 35.1499 48.7297C35.1499 49.814 35.5843 50.854 36.3576 51.6214C37.131 52.3888 38.1802 52.8209 39.2749 52.8228ZM57.8524 52.8228C58.671 52.8287 59.4729 52.5937 60.1564 52.1475C60.8399 51.7014 61.3743 51.0642 61.6917 50.3168C62.009 49.5694 62.0952 48.7455 61.9391 47.9495C61.7831 47.1536 61.3919 46.4215 60.8151 45.8461C60.2384 45.2707 59.5021 44.8779 58.6997 44.7175C57.8973 44.5572 57.0648 44.6365 56.308 44.9454C55.5511 45.2543 54.9039 45.7789 54.4485 46.4526C53.9931 47.1264 53.7499 47.9189 53.7499 48.7297C53.7479 49.8107 54.1785 50.8485 54.9475 51.6157C55.7164 52.3829 56.761 52.817 57.8524 52.8228Z" fill="black"/>
<path fill-rule="evenodd" clip-rule="evenodd" d="M38 48.9897C38.3073 48.9912 38.6082 48.9022 38.8645 48.7342C39.1208 48.5661 39.321 48.3264 39.4396 48.0456C39.5583 47.7647 39.5901 47.4553 39.531 47.1566C39.472 46.8578 39.3247 46.5831 39.1079 46.3673C38.8911 46.1515 38.6145 46.0043 38.3131 45.9444C38.0117 45.8844 37.6992 45.9144 37.4151 46.0306C37.131 46.1468 36.8881 46.3439 36.7171 46.5969C36.5462 46.8499 36.455 47.1475 36.455 47.452C36.455 47.8585 36.6175 48.2485 36.907 48.5367C37.1965 48.8248 37.5895 48.9877 38 48.9897ZM56.5775 48.9897C56.8848 48.9912 57.1857 48.9022 57.442 48.7342C57.6983 48.5661 57.8985 48.3264 58.0171 48.0456C58.1358 47.7647 58.1676 47.4553 58.1085 47.1566C58.0495 46.8578 57.9022 46.5831 57.6854 46.3673C57.4686 46.1515 57.192 46.0043 56.8906 45.9444C56.5892 45.8844 56.2767 45.9144 55.9926 46.0306C55.7085 46.1468 55.4656 46.3439 55.2946 46.5969C55.1237 46.8499 55.0325 47.1475 55.0325 47.452C55.0324 47.856 55.1929 48.2438 55.4792 48.5315C55.7655 48.8192 56.1546 48.9838 56.5625 48.9897H56.5775Z" fill="white"/>
</g>
<defs>
<linearGradient id="paint0_linear_13_132" x1="50" y1="0" x2="50" y2="100" gradientUnits="userSpaceOnUse">
<stop stop-color="white" stop-opacity="0.15"/>
<stop offset="1" stop-color="#D9D9D9" stop-opacity="0.08"/>
</linearGradient>
<clipPath id="clip0_13_132">
<rect width="60" height="52" fill="white" transform="translate(20 24)"/>
</clipPath>
</defs>
</svg>
