<svg width="100" height="100" viewBox="0 0 100 100" fill="none" xmlns="http://www.w3.org/2000/svg">
<rect x="1" y="1" width="98" height="98" rx="26" fill="#E8E8E8"/>
<rect x="1" y="1" width="98" height="98" rx="26" stroke="url(#paint0_linear_15_180)" stroke-width="2"/>
<path d="M22 70.841L48.9812 28.2223L63.4433 37.4938L42.3315 70.841H22Z" fill="#FBBC04"/>
<path d="M48.4109 28H65.0192V70.841H48.4109V28Z" fill="#1A73E8"/>
<path d="M31.2004 45.2801C35.7469 45.2801 39.4326 41.5713 39.4326 36.9961C39.4326 32.421 35.7469 28.7122 31.2004 28.7122C26.6539 28.7122 22.9683 32.421 22.9683 36.9961C22.9683 41.5713 26.6539 45.2801 31.2004 45.2801Z" fill="#EA4335"/>
<path d="M76.8483 58.9375C76.8483 62.0945 75.602 65.1222 73.3837 67.3545C71.1653 69.5869 68.1565 70.841 65.0193 70.841V47.0352C68.1563 47.0352 71.1649 48.2891 73.3833 50.5212C75.6016 52.7533 76.848 55.7807 76.8483 58.9375Z" fill="#34A853"/>
<path d="M65.0192 47.0352V70.841C61.9018 70.8107 58.9224 69.5434 56.7286 67.3144C54.5349 65.0855 53.3042 62.0752 53.3042 58.9381C53.3042 55.8009 54.5349 52.7907 56.7286 50.5617C58.9224 48.3328 61.9018 47.0654 65.0192 47.0352Z" fill="#0D652D"/>
<path d="M74.1229 37.8742C74.1226 40.3037 73.1634 42.6337 71.4562 44.3516C69.749 46.0696 67.4336 47.0348 65.0193 47.0351V28.7122C67.4338 28.7125 69.7494 29.6779 71.4566 31.396C73.1638 33.1142 74.1229 35.4445 74.1229 37.8742Z" fill="#1A73E8"/>
<path d="M65.0191 28.7122V47.0351C62.6219 47.0086 60.3317 46.0317 58.6459 44.3165C56.96 42.6013 56.0144 40.2861 56.0144 37.8736C56.0144 35.4612 56.96 33.146 58.6459 31.4308C60.3317 29.7156 62.6219 28.7387 65.0191 28.7122Z" fill="#174EA6"/>
<defs>
<linearGradient id="paint0_linear_15_180" x1="50" y1="0" x2="50" y2="100" gradientUnits="userSpaceOnUse">
<stop stop-color="white" stop-opacity="0.15"/>
<stop offset="1" stop-color="#D9D9D9" stop-opacity="0.08"/>
</linearGradient>
</defs>
</svg>
