<svg width="100" height="100" viewBox="0 0 100 100" fill="none" xmlns="http://www.w3.org/2000/svg">
<rect x="1" y="1" width="98" height="98" rx="26" fill="#FEF62A"/>
<rect x="1" y="1" width="98" height="98" rx="26" stroke="url(#paint0_linear_14_159)" stroke-width="2"/>
<path d="M40.3613 35.9857L24.7369 64.0143H10.5046L22.7033 42.1271C24.5937 38.7356 29.3118 35.9857 33.242 35.9857H40.3613ZM75.2631 42.9929C75.2631 39.1218 78.449 35.9857 82.3792 35.9857C86.3095 35.9857 89.4954 39.1218 89.4954 42.9929C89.4954 46.8639 86.3095 50 82.3792 50C78.449 50 75.2631 46.8639 75.2631 42.9929ZM43.0271 35.9857H57.2594L41.6382 64.0143H27.4059L43.0271 35.9857ZM59.838 35.9857H74.0703L61.8717 57.8729C59.9813 61.2644 55.2632 64.0143 51.3329 64.0143H44.2168L59.838 35.9857Z" fill="black"/>
<defs>
<linearGradient id="paint0_linear_14_159" x1="50" y1="0" x2="50" y2="100" gradientUnits="userSpaceOnUse">
<stop stop-color="white" stop-opacity="0.15"/>
<stop offset="1" stop-color="#D9D9D9" stop-opacity="0.08"/>
</linearGradient>
</defs>
</svg>
