<svg width="100" height="100" viewBox="0 0 100 100" fill="none" xmlns="http://www.w3.org/2000/svg">
<rect x="1" y="1" width="98" height="98" rx="26" fill="black"/>
<rect x="1" y="1" width="98" height="98" rx="26" stroke="url(#paint0_linear_13_108)" stroke-width="2"/>
<g clip-path="url(#clip0_13_108)">
<path d="M64.4408 71.619C60.309 74.3858 55.3408 76 50 76C35.6502 76 24 64.3498 24 50C24 35.6502 35.6502 24 50 24C64.3498 24 76 35.6502 76 50C76 57.7632 72.5897 64.7355 67.1882 69.5022L43.9745 39.6H39.6V60.3913H43.0992V44.0438L64.4408 71.619ZM57.2215 53.1308L60.6882 57.5963V39.6H57.2215V53.1308Z" fill="white"/>
</g>
<defs>
<linearGradient id="paint0_linear_13_108" x1="50" y1="0" x2="50" y2="100" gradientUnits="userSpaceOnUse">
<stop stop-color="white" stop-opacity="0.15"/>
<stop offset="1" stop-color="#D9D9D9" stop-opacity="0.08"/>
</linearGradient>
<clipPath id="clip0_13_108">
<rect width="52" height="52" fill="white" transform="translate(24 24)"/>
</clipPath>
</defs>
</svg>
