<svg width="100" height="100" viewBox="0 0 100 100" fill="none" xmlns="http://www.w3.org/2000/svg">
<rect x="1" y="1" width="98" height="98" rx="26" fill="#25040F"/>
<rect x="1" y="1" width="98" height="98" rx="26" stroke="url(#paint0_linear_13_142)" stroke-width="2"/>
<g clip-path="url(#clip0_13_142)">
<path d="M53.5235 53.443C52.6098 54.3814 51.3609 54.9185 50.0513 54.9363C48.7418 54.954 47.4787 54.451 46.54 53.5378C45.6013 52.6239 45.0642 51.3745 45.0467 50.0645C45.0292 48.7546 45.5328 47.4913 46.4467 46.5527C47.3604 45.6143 48.6093 45.0772 49.9189 45.0594C51.2285 45.0417 52.4915 45.5447 53.4303 46.4579C54.3689 47.3719 54.906 48.6212 54.9235 49.9312C54.941 51.2411 54.4374 52.5044 53.5235 53.443ZM74.1893 40.6037C72.0589 38.5294 67.7921 37.335 62.4117 37.2209C62.1418 31.8613 60.8154 27.6438 58.6866 25.5709C58.0376 24.9391 57.3039 24.5114 56.5076 24.3065C53.1091 23.4426 48.8135 26.8791 45.1583 32.8815C38.8915 29.6782 33.4413 29.0057 31.0002 31.5129C28.5498 34.0296 29.3771 39.4817 32.7715 45.6635C26.8597 49.5058 23.5425 53.9071 24.503 57.2844C24.7213 58.0735 25.1713 58.783 25.8234 59.418C27.9523 61.4908 32.2207 62.6867 37.6041 62.7977C37.8725 68.1588 39.1988 72.3764 41.3277 74.4492C41.9767 75.081 42.7057 75.5134 43.5021 75.7184C46.8974 76.5823 51.1946 73.1474 54.8514 67.1433C61.0884 70.3424 66.5432 71.0101 68.9875 68.4998C71.4378 65.9831 70.6105 60.531 67.2192 54.346C73.1264 50.5085 76.4467 46.1039 75.4877 42.7251C75.2679 41.9438 74.8272 41.2279 74.1893 40.6037ZM72.5016 42.3213L72.4923 42.3308C72.8485 42.6775 73.0671 43.0261 73.1798 43.3917C73.6452 45.0228 71.8634 47.768 68.6269 50.3795C67.8326 51.0243 66.9458 51.6564 66.012 52.2734C64.8562 50.4204 63.4796 48.5219 61.9172 46.64C62.2673 44.1904 62.4499 41.8336 62.4673 39.6306C67.268 39.7416 70.8857 40.7603 72.5016 42.3244L72.5016 42.3213ZM57.0067 27.2962C58.6085 28.8558 59.7407 32.4495 59.9983 37.239C57.8029 37.3214 55.4612 37.5604 53.0376 37.9911C51.1052 36.4703 49.169 35.1432 47.2812 34.0452C47.8591 33.097 48.4582 32.2188 49.0676 31.4062C51.5824 28.095 54.2696 26.2345 55.9107 26.6391C56.3501 26.7894 56.741 27.0529 57.0067 27.2962ZM60.0336 39.6475C60.0325 41.0895 59.9451 42.6201 59.7759 44.2189C59.1103 43.5092 58.4196 42.7935 57.6994 42.0923C56.9713 41.3834 56.2357 40.698 55.4944 40.0502C57.0724 39.8229 58.5985 39.6963 60.0336 39.6475ZM56.0103 43.8271C57.1816 44.9675 58.2957 46.1571 59.3524 47.3678C59.098 48.9147 58.7678 50.5079 58.3583 52.135C57.9608 53.7213 57.4941 55.271 56.9706 56.784C55.4737 57.346 53.9292 57.8619 52.362 58.3093C50.7434 58.7683 49.1536 59.1567 47.6124 59.4506C46.3631 58.4284 45.141 57.3464 43.9634 56.1998C42.7921 55.0594 41.6795 53.8682 40.6214 52.6591C40.8757 51.1122 41.2075 49.5174 41.6154 47.8919C42.0129 46.3056 42.4797 44.7559 43.0031 43.2429C44.4953 42.67 46.0491 42.1603 47.6179 41.7113C49.2365 41.2523 50.8233 40.8671 52.3644 40.5731C53.6153 41.5938 54.8358 42.6773 56.0134 43.8239L56.0103 43.8271ZM49.8654 38.6271C48.9045 38.854 47.9298 39.0951 46.9634 39.3782C46.0062 39.6488 45.0697 39.9456 44.1491 40.2578C44.7406 38.8111 45.3923 37.4292 46.0796 36.1343C47.3238 36.8832 48.5987 37.7114 49.8654 38.6271ZM61.3566 49.8157C62.2979 51.0498 63.1626 52.2833 63.9353 53.5197C62.6764 54.2426 61.3185 54.9247 59.9116 55.5621C60.1961 54.6366 60.4694 53.6909 60.7079 52.7176C60.9559 51.7504 61.1647 50.7759 61.3581 49.8172L61.3566 49.8157ZM65.1644 55.6045C65.6993 56.5878 66.1701 57.5611 66.5733 58.5118C68.1743 62.3523 68.4552 65.6105 67.2717 66.8261C66.0802 68.034 62.8095 67.8464 58.9353 66.3405C57.9931 65.9782 57.0154 65.5257 56.0308 65.0326C57.0641 63.0848 58.0228 60.9411 58.8823 58.6207C61.1619 57.7044 63.262 56.6875 65.1675 55.6013L65.1644 55.6045ZM43.9566 34.9675C42.9172 36.9155 41.9615 39.0591 41.1052 41.3795C38.8256 42.2957 36.7223 43.3096 34.8183 44.3973C34.2834 43.414 33.8143 42.4391 33.4205 41.4946C31.8149 37.6588 31.5355 34.399 32.719 33.1834C33.9026 31.9678 37.1764 32.1522 41.049 33.6597C41.9912 34.022 42.9689 34.4745 43.9566 34.9675ZM55.8446 59.7391C55.2515 61.1874 54.5982 62.5709 53.9125 63.8642C52.6575 63.1264 51.3826 62.2951 50.1205 61.3746C51.0783 61.1509 52.0546 60.9083 53.021 60.6282C53.9782 60.3577 54.9223 60.0498 55.8446 59.7391ZM40.0728 44.4444C39.7852 45.373 39.515 46.3155 39.275 47.2905C39.038 48.2622 38.8212 49.229 38.6293 50.1861C37.6865 48.9536 36.8233 47.7184 36.0491 46.4836C37.3049 45.7639 38.6674 45.0802 40.0728 44.4412L40.0728 44.4444ZM52.7125 65.9611C52.13 66.9141 51.5373 67.8015 50.9216 68.6049C48.4068 71.9161 45.7196 73.7766 44.077 73.3736C43.7056 73.2895 43.3447 73.0553 42.9886 72.7086C41.3868 71.1489 40.2531 67.5569 39.997 62.7658C42.1924 62.6833 44.5326 62.4459 46.9546 62.0168C48.8886 63.536 50.8248 64.8631 52.7125 65.9611ZM33.9726 47.7455C35.1314 49.5954 36.5081 51.4939 38.0704 53.3758C37.7204 55.8254 37.5378 58.1822 37.5219 60.3836C32.7118 60.2728 29.091 59.251 27.4797 57.6821C27.1392 57.3351 26.9141 56.9773 26.8078 56.6209C26.3393 54.9931 28.1227 52.2463 31.3591 49.6348C32.1535 48.9899 33.0403 48.361 33.9726 47.7455ZM40.2038 55.786C40.8694 56.4958 41.5601 57.2114 42.2803 57.9127C43.0084 58.6216 43.744 59.3069 44.4853 59.9548C42.9074 60.182 41.3812 60.3086 39.9446 60.359C39.9487 58.9139 40.0346 57.3849 40.2038 55.786Z" fill="#E91E63"/>
</g>
<defs>
<linearGradient id="paint0_linear_13_142" x1="50" y1="0" x2="50" y2="100" gradientUnits="userSpaceOnUse">
<stop stop-color="white" stop-opacity="0.15"/>
<stop offset="1" stop-color="#D9D9D9" stop-opacity="0.08"/>
</linearGradient>
<clipPath id="clip0_13_142">
<rect width="53.0195" height="53.0195" fill="white" transform="translate(49.4998 12.5129) rotate(44.2355)"/>
</clipPath>
</defs>
</svg>
