<svg width="100" height="100" viewBox="0 0 100 100" fill="none" xmlns="http://www.w3.org/2000/svg">
<rect x="1" y="1" width="98" height="98" rx="26" fill="#222222"/>
<rect x="1" y="1" width="98" height="98" rx="26" stroke="url(#paint0_linear_14_176)" stroke-width="2"/>
<g clip-path="url(#clip0_14_176)">
<path d="M50.0027 30.5C41.336 30.5 35.9194 34.8333 33.7527 43.5C37.0027 39.1667 40.7944 37.5417 45.1277 38.625C47.6004 39.2425 49.3662 41.0354 51.3244 43.0233C54.5121 46.2571 58.1981 50 66.2527 50C74.9194 50 80.336 45.6667 82.5027 37C79.2527 41.3333 75.461 42.9583 71.1277 41.875C68.655 41.2575 66.8891 39.4646 64.931 37.4767C61.746 34.2429 58.06 30.5 50.0027 30.5ZM33.7527 50C25.086 50 19.6694 54.3333 17.5027 63C20.7527 58.6667 24.5444 57.0417 28.8777 58.125C31.3504 58.7425 33.1162 60.5354 35.0744 62.5233C38.2621 65.7571 41.9481 69.5 50.0027 69.5C58.6694 69.5 64.086 65.1667 66.2527 56.5C63.0027 60.8333 59.211 62.4583 54.8777 61.375C52.405 60.7575 50.6391 58.9646 48.681 56.9767C45.496 53.7429 41.81 50 33.7527 50Z" fill="#06B6D4"/>
</g>
<defs>
<linearGradient id="paint0_linear_14_176" x1="50" y1="0" x2="50" y2="100" gradientUnits="userSpaceOnUse">
<stop stop-color="white" stop-opacity="0.15"/>
<stop offset="1" stop-color="#D9D9D9" stop-opacity="0.08"/>
</linearGradient>
<clipPath id="clip0_14_176">
<rect width="65" height="65" fill="white" transform="translate(17.5 17.5)"/>
</clipPath>
</defs>
</svg>
