<svg width="100" height="100" viewBox="0 0 100 100" fill="none" xmlns="http://www.w3.org/2000/svg">
<rect x="1" y="1" width="98" height="98" rx="26" fill="#2D79C7"/>
<rect x="1" y="1" width="98" height="98" rx="26" stroke="url(#paint0_linear_13_140)" stroke-width="2"/>
<path d="M26.896 74L27.516 69.04V34.072H36.072V69.04L36.692 74H26.896ZM15.24 38.784V30.6H48.348V38.784L44.628 38.164H18.96L15.24 38.784ZM66.5276 74.744C63.7996 74.7853 61.3816 74.5167 59.2736 73.938C57.2069 73.3593 55.3056 72.5947 53.5696 71.644V64.328L55.0576 63.708C56.4216 64.7 57.9716 65.4853 59.7076 66.064C61.4849 66.6427 63.5309 66.932 65.8456 66.932C68.1602 66.932 70.0616 66.5807 71.5496 65.878C73.0376 65.1753 73.7816 63.9767 73.7816 62.282C73.7816 61.0833 73.4096 60.112 72.6656 59.368C71.9629 58.5827 71.0122 57.942 69.8136 57.446C68.6149 56.9087 67.2922 56.4127 65.8456 55.958C64.3989 55.5033 62.9522 54.966 61.5056 54.346C60.0589 53.726 58.7362 52.9407 57.5376 51.99C56.3389 50.998 55.3676 49.758 54.6236 48.27C53.9209 46.7407 53.5696 44.8393 53.5696 42.566C53.5696 39.714 54.1896 37.358 55.4296 35.498C56.6696 33.5967 58.4262 32.1913 60.6996 31.282C62.9729 30.3313 65.6596 29.856 68.7596 29.856C70.9089 29.856 72.9549 30.0627 74.8976 30.476C76.8402 30.848 78.6382 31.3853 80.2916 32.088V39.342L78.8036 39.962C77.5222 39.218 76.1376 38.66 74.6496 38.288C73.1616 37.8747 71.6322 37.668 70.0616 37.668C69.1109 37.668 68.0362 37.792 66.8376 38.04C65.6389 38.2467 64.5849 38.7013 63.6756 39.404C62.8076 40.0653 62.3736 41.078 62.3736 42.442C62.3736 43.6407 62.7249 44.6327 63.4276 45.418C64.1716 46.162 65.1429 46.8027 66.3416 47.34C67.5402 47.836 68.8629 48.332 70.3096 48.828C71.7562 49.324 73.2029 49.882 74.6496 50.502C76.0962 51.122 77.4189 51.9073 78.6176 52.858C79.8162 53.8087 80.7669 55.0073 81.4696 56.454C82.2136 57.9007 82.5856 59.7193 82.5856 61.91C82.5856 63.9767 82.2136 65.7953 81.4696 67.366C80.7669 68.9367 79.7336 70.28 78.3696 71.396C77.0056 72.4707 75.3316 73.2973 73.3476 73.876C71.3636 74.4133 69.0902 74.7027 66.5276 74.744Z" fill="white"/>
<defs>
<linearGradient id="paint0_linear_13_140" x1="50" y1="0" x2="50" y2="100" gradientUnits="userSpaceOnUse">
<stop stop-color="white" stop-opacity="0.15"/>
<stop offset="1" stop-color="#D9D9D9" stop-opacity="0.08"/>
</linearGradient>
</defs>
</svg>
